<?xml version="1.0" standalone="no"?>
<!DOCTYPE svg PUBLIC "-//W3C//DTD SVG 20010904//EN"
 "http://www.w3.org/TR/2001/REC-SVG-20010904/DTD/svg10.dtd">
<svg version="1.0" xmlns="http://www.w3.org/2000/svg"
 width="841.000000pt" height="517.000000pt" viewBox="0 0 841.000000 517.000000"
 preserveAspectRatio="xMidYMid meet">
<metadata>
Created by potrace 1.15, written by Peter Selinger 2001-2017
</metadata>
<g transform="translate(0.000000,517.000000) scale(0.100000,-0.100000)"
fill="#000000" stroke="none">
<path d="M4093 4800 c-105 -64 -193 -226 -193 -359 l0 -44 -45 42 c-46 43 -91
69 -101 59 -3 -3 -9 -34 -14 -69 -9 -61 -2 -143 19 -230 l8 -37 -41 19 c-22
10 -60 19 -82 19 l-41 0 8 -42 c10 -53 31 -112 58 -166 12 -23 18 -42 14 -42
-5 0 -38 15 -74 34 -171 85 -284 218 -335 391 l-17 60 -20 -45 c-32 -70 -35
-191 -7 -282 12 -40 32 -92 45 -114 l22 -42 -31 9 c-38 11 -133 12 -140 1 -12
-19 63 -142 129 -209 l71 -73 -34 0 c-32 0 -105 -31 -116 -49 -10 -16 33 -58
114 -112 44 -29 80 -55 80 -59 0 -4 -16 -20 -35 -34 -19 -15 -51 -51 -70 -79
l-35 -52 37 -7 c21 -4 86 -7 146 -7 59 -1 107 -4 107 -7 0 -3 -13 -23 -29 -43
-16 -20 -47 -73 -70 -119 l-42 -83 38 7 c48 8 196 60 245 85 l36 18 -14 -52
c-8 -29 -17 -104 -20 -167 l-7 -115 33 30 c40 38 94 111 130 177 32 58 36 55
44 -37 3 -33 8 -74 11 -91 6 -28 3 -32 -52 -66 -165 -102 -259 -205 -365 -398
-38 -69 -112 -250 -105 -256 2 -2 25 23 51 56 106 135 262 207 509 236 201 23
375 52 446 74 119 38 255 117 346 202 98 92 147 163 241 348 56 112 79 146
133 201 36 36 90 77 120 92 l53 26 -33 20 c-48 28 -59 39 -59 61 0 25 -53 68
-96 76 -80 15 -181 -31 -236 -109 l-22 -31 -16 55 c-36 121 -75 174 -285 390
-289 296 -361 399 -406 579 -26 101 -22 217 9 318 11 34 19 62 18 62 0 0 -15
-9 -33 -20z m-764 -685 c38 -66 124 -154 198 -202 114 -72 195 -99 493 -158
293 -59 366 -86 464 -175 62 -57 123 -167 133 -238 5 -37 3 -42 -20 -53 -35
-16 -50 -2 -72 64 -22 69 -74 147 -127 189 -62 50 -143 80 -398 148 -124 33
-254 70 -290 82 -191 62 -299 160 -404 366 -27 52 -10 36 23 -23z m1709 -674
c6 -40 -39 -56 -58 -20 -9 15 -8 24 1 35 18 22 53 13 57 -15z"/>
<path d="M858 1823 c-54 -2 -98 -5 -99 -6 0 -1 -29 -221 -63 -489 l-63 -488
62 0 62 0 17 133 c10 72 20 149 23 170 l6 39 51 -6 c71 -9 191 10 253 40 70
34 130 96 167 174 29 60 31 73 31 170 0 97 -2 109 -28 152 -17 29 -44 57 -70
72 -48 28 -138 47 -206 44 -25 -1 -90 -4 -143 -5z m252 -113 c52 -25 73 -68
72 -149 0 -126 -46 -222 -123 -259 -52 -25 -140 -37 -201 -28 l-44 7 27 215
c15 119 31 220 35 224 24 23 181 17 234 -10z"/>
<path d="M1745 1823 l-100 -4 -59 -472 c-33 -260 -61 -480 -64 -489 -4 -16 4
-18 60 -18 l65 0 22 183 c31 263 21 237 97 237 66 0 99 -11 121 -39 21 -27 54
-102 83 -186 15 -44 39 -106 53 -137 l26 -58 70 0 70 0 -43 93 c-24 50 -55
124 -71 162 -15 39 -40 94 -57 124 -16 29 -28 54 -26 56 2 1 22 12 45 24 59
30 111 85 141 150 37 79 38 197 3 258 -58 102 -154 127 -436 116z m252 -110
c51 -24 73 -66 73 -138 0 -69 -23 -127 -66 -167 -43 -40 -75 -48 -190 -48
-103 0 -104 0 -99 23 2 12 12 85 20 162 23 197 15 185 131 185 69 0 106 -5
131 -17z"/>
<path d="M2843 1820 c-106 -22 -223 -112 -286 -220 -98 -170 -114 -436 -36
-597 78 -162 250 -216 426 -133 82 38 170 126 212 212 84 172 96 410 28 570
-22 52 -95 128 -144 150 -49 22 -142 30 -200 18z m144 -111 c81 -39 114 -131
114 -314 -1 -215 -76 -381 -203 -446 -54 -27 -159 -24 -200 6 -63 47 -98 159
-98 315 0 307 197 531 387 439z"/>
<path d="M3730 1814 c-105 -28 -168 -91 -190 -189 -29 -128 35 -234 219 -364
81 -58 111 -108 111 -185 0 -52 -3 -61 -33 -91 -38 -38 -89 -55 -168 -55 -55
0 -153 23 -176 42 -18 15 -31 2 -45 -43 -14 -48 -11 -50 72 -77 75 -23 227
-23 297 1 119 41 183 126 183 243 0 114 -34 166 -182 276 -130 97 -151 122
-156 198 -5 75 15 115 71 141 70 31 215 21 259 -18 15 -13 18 -10 37 33 12 26
20 48 19 49 -18 15 -75 35 -123 44 -77 14 -128 13 -195 -5z"/>
<path d="M5452 1815 c-73 -20 -107 -40 -165 -94 -115 -106 -176 -250 -184
-436 -14 -295 122 -472 345 -452 144 14 266 107 342 259 89 181 95 419 16 576
-28 55 -92 117 -143 138 -52 22 -150 26 -211 9z m151 -99 c44 -19 83 -63 103
-116 25 -68 31 -287 10 -370 -37 -142 -115 -253 -202 -286 -59 -22 -149 -16
-191 14 -67 48 -98 165 -90 342 6 133 28 207 87 298 72 112 186 160 283 118z"/>
<path d="M6338 1823 c-54 -2 -98 -5 -99 -6 0 -1 -28 -221 -62 -489 l-62 -488
62 0 c35 0 63 3 63 8 0 4 11 95 25 202 14 107 25 198 25 203 0 10 124 9 154
-2 32 -13 70 -78 112 -198 20 -54 47 -124 61 -155 l26 -58 68 0 c67 0 80 5 59
26 -5 5 -37 74 -70 154 -34 80 -75 169 -91 199 -16 30 -28 55 -26 56 1 1 26
15 56 31 161 86 216 329 100 445 -65 65 -160 82 -401 72z m251 -111 c57 -29
76 -64 75 -137 -2 -83 -32 -147 -87 -183 -37 -25 -50 -27 -157 -30 l-116 -4
23 178 c14 109 28 181 35 186 7 4 54 8 103 8 66 0 99 -5 124 -18z"/>
<path d="M4410 1808 c0 -7 -27 -224 -60 -483 -33 -258 -60 -473 -60 -477 0 -5
27 -8 60 -8 54 0 60 2 65 23 4 18 55 414 55 428 0 2 70 3 155 1 l155 -3 0 51
0 50 -151 0 c-138 0 -150 1 -145 18 2 9 12 83 22 165 l17 147 194 0 193 0 0
28 c0 15 3 37 6 50 l6 22 -256 0 c-198 0 -256 -3 -256 -12z"/>
<path d="M7187 1336 c-131 -266 -237 -487 -237 -490 0 -3 28 -6 63 -6 l63 0
56 123 56 122 196 3 c108 1 196 -1 196 -5 0 -5 9 -60 20 -123 11 -63 20 -116
20 -117 0 -9 120 -1 120 8 0 10 -149 809 -171 917 l-10 52 -68 0 -68 0 -236
-484z m368 -113 l6 -33 -161 0 c-89 0 -160 4 -158 9 2 4 55 120 118 256 l115
248 37 -224 c20 -123 40 -239 43 -256z"/>
<path d="M2844 537 c-2 -7 -3 -89 -2 -182 3 -152 5 -170 21 -173 16 -3 17 11
17 182 0 160 -2 186 -15 186 -9 0 -18 -6 -21 -13z"/>
<path d="M3927 544 c-4 -4 -7 -31 -7 -61 l0 -53 -44 0 c-84 0 -140 -81 -116
-169 18 -68 75 -97 136 -69 22 10 28 10 32 0 2 -6 10 -12 18 -12 12 0 14 29
12 182 -3 170 -9 204 -31 182z m-9 -222 c3 -97 -4 -112 -59 -112 -48 0 -69 27
-69 88 0 74 32 114 90 109 l35 -2 3 -83z"/>
<path d="M4613 540 c-27 -11 -43 -40 -43 -78 0 -24 -5 -31 -27 -37 l-28 -8 25
-6 c25 -7 25 -9 28 -119 2 -90 5 -112 17 -112 12 0 15 21 15 115 l0 115 30 0
c17 0 30 5 30 10 0 6 -13 10 -30 10 -26 0 -30 4 -30 26 0 42 17 64 51 64 20 0
29 4 27 13 -6 15 -36 19 -65 7z"/>
<path d="M2477 534 c-15 -15 -7 -45 11 -42 9 2 17 12 17 22 0 20 -16 31 -28
20z"/>
<path d="M4047 534 c-15 -15 -7 -45 11 -42 9 2 17 12 17 22 0 20 -16 31 -28
20z"/>
<path d="M5331 354 c-34 -92 -59 -169 -57 -172 13 -12 33 10 45 47 l12 42 76
-3 76 -3 15 -42 c7 -24 20 -43 28 -43 21 0 18 11 -44 180 -37 101 -62 156 -73
158 -12 2 -30 -37 -78 -164z m109 41 c13 -38 25 -76 28 -82 3 -10 -12 -13 -57
-13 -34 0 -61 3 -61 7 0 21 56 171 61 165 4 -4 17 -38 29 -77z"/>
<path d="M5628 513 l-28 -4 0 -165 c0 -152 1 -165 18 -162 14 3 18 16 20 76
l3 72 34 0 c40 0 72 -34 99 -103 12 -33 23 -47 36 -47 18 0 18 3 -4 49 -12 27
-30 61 -40 75 -17 27 -17 28 8 47 14 11 28 34 31 52 17 87 -51 129 -177 110z
m123 -33 c14 -8 19 -21 19 -55 0 -54 -24 -75 -87 -75 l-43 0 0 70 0 70 46 0
c25 0 54 -5 65 -10z"/>
<path d="M6332 505 c-78 -34 -57 -117 43 -170 71 -38 90 -72 59 -106 -17 -19
-27 -21 -81 -16 -48 4 -63 2 -63 -9 0 -16 76 -29 119 -19 17 3 40 18 51 32 39
50 20 95 -58 140 -68 38 -82 53 -82 84 0 38 30 53 92 46 52 -7 65 7 22 23 -34
13 -63 12 -102 -5z"/>
<path d="M6850 502 c-31 -15 -35 -22 -38 -59 -4 -50 15 -72 96 -115 60 -32 76
-66 46 -100 -17 -18 -27 -20 -81 -15 -48 4 -63 2 -63 -9 0 -16 76 -29 119 -19
17 3 40 18 51 32 39 50 20 95 -58 140 -68 38 -82 53 -82 84 0 37 30 53 91 47
53 -5 65 6 23 22 -37 14 -64 12 -104 -8z"/>
<path d="M5860 500 c0 -5 25 -10 55 -10 l55 0 0 -155 c0 -131 2 -155 15 -155
13 0 15 24 15 155 l0 155 55 0 c30 0 55 5 55 10 0 6 -48 10 -125 10 -77 0
-125 -4 -125 -10z"/>
<path d="M6170 345 c0 -140 2 -165 15 -165 13 0 15 25 15 165 0 140 -2 165
-15 165 -13 0 -15 -25 -15 -165z"/>
<path d="M6510 500 c0 -5 25 -10 55 -10 l55 0 0 -155 c0 -131 2 -155 15 -155
13 0 15 24 15 155 l0 155 55 0 c30 0 55 5 55 10 0 6 -48 10 -125 10 -77 0
-125 -4 -125 -10z"/>
<path d="M1413 420 c-13 -5 -23 -14 -23 -21 0 -7 7 -8 18 -4 33 15 82 17 97 5
8 -7 15 -25 15 -41 0 -25 -4 -28 -45 -35 -59 -8 -95 -37 -95 -75 0 -56 52 -83
117 -58 19 7 29 7 31 0 2 -6 10 -11 19 -11 12 0 14 17 11 111 -3 96 -6 113
-22 125 -22 16 -89 18 -123 4z m107 -155 c0 -40 -3 -47 -26 -55 -37 -14 -73
-2 -80 26 -10 38 29 72 84 73 20 1 22 -4 22 -44z"/>
<path d="M1793 415 c-28 -20 -30 -65 -5 -87 9 -9 36 -25 60 -37 77 -39 45
-101 -42 -81 -28 6 -36 5 -36 -6 0 -28 104 -30 137 -2 18 14 16 73 -1 88 -8 6
-34 21 -58 33 -73 37 -60 93 20 84 29 -3 42 -1 39 7 -6 18 -89 19 -114 1z"/>
<path d="M2017 410 c-80 -63 -42 -230 53 -230 62 0 94 29 114 105 9 34 -12 99
-39 123 -34 28 -93 30 -128 2z m112 -26 c27 -35 29 -122 4 -152 -30 -35 -68
-38 -97 -8 -35 34 -38 127 -4 163 29 31 71 30 97 -3z"/>
<path d="M2275 406 c-49 -49 -51 -159 -3 -203 24 -21 110 -25 129 -6 18 18 7
24 -27 14 -34 -9 -71 2 -90 27 -7 9 -14 41 -14 70 0 44 4 57 26 79 21 21 32
25 65 20 29 -4 39 -2 39 9 0 10 -14 14 -50 14 -40 0 -56 -5 -75 -24z"/>
<path d="M2472 308 c3 -101 6 -123 18 -123 12 0 15 22 18 123 3 117 2 122 -18
122 -20 0 -21 -5 -18 -122z"/>
<path d="M2613 420 c-13 -5 -23 -14 -23 -21 0 -7 7 -8 18 -4 29 12 86 16 99 7
7 -4 15 -22 19 -39 6 -30 5 -30 -44 -37 -63 -8 -102 -37 -102 -77 0 -56 52
-83 117 -58 19 7 29 7 31 0 2 -6 10 -11 19 -11 12 0 14 17 11 111 -3 96 -6
113 -22 125 -22 16 -89 18 -123 4z m117 -149 c0 -43 -13 -58 -50 -62 -47 -4
-60 1 -66 26 -10 41 28 73 89 74 25 1 27 -2 27 -38z"/>
<path d="M3110 305 c0 -103 3 -125 15 -125 11 0 15 20 17 102 l3 103 38 12
c67 22 76 10 79 -110 2 -83 6 -102 18 -102 12 0 15 18 16 100 l1 99 33 14 c25
10 40 11 56 3 22 -10 23 -17 26 -113 3 -89 5 -103 21 -106 15 -3 17 6 17 88 0
56 -5 104 -14 125 -13 31 -19 35 -53 35 -21 0 -50 -6 -65 -14 -23 -12 -29 -12
-39 0 -15 18 -72 18 -109 -1 -27 -14 -30 -14 -30 0 0 8 -7 15 -15 15 -13 0
-15 -21 -15 -125z"/>
<path d="M3557 409 c-74 -57 -49 -208 37 -224 37 -8 103 7 96 21 -3 5 -9 8
-14 6 -27 -9 -90 -3 -102 10 -8 8 -18 28 -23 46 l-9 31 81 3 82 3 -2 39 c-5
78 -85 114 -146 65z m101 -12 c6 -6 13 -24 17 -40 l7 -27 -66 0 c-57 0 -66 2
-66 18 0 46 80 83 108 49z"/>
<path d="M4040 304 c0 -114 2 -125 18 -122 15 3 17 18 20 126 2 117 2 122 -18
122 -19 0 -20 -6 -20 -126z"/>
<path d="M4183 420 c-13 -5 -23 -14 -23 -21 0 -7 7 -8 18 -4 33 15 82 17 97 5
8 -7 15 -25 15 -40 0 -25 -4 -28 -44 -34 -59 -9 -96 -39 -96 -77 0 -56 52 -83
117 -58 19 7 29 7 31 0 2 -6 10 -11 19 -11 12 0 14 17 11 111 -3 96 -6 113
-22 125 -22 16 -89 18 -123 4z m105 -157 c-3 -41 -6 -47 -30 -54 -40 -10 -67
0 -74 27 -10 38 29 72 84 73 21 1 23 -3 20 -46z"/>
<path d="M4747 410 c-75 -60 -50 -209 39 -226 80 -15 142 56 128 148 -14 86
-103 128 -167 78z m112 -26 c32 -40 29 -126 -4 -159 -31 -32 -59 -32 -90 0
-20 20 -25 34 -25 78 0 67 26 107 70 107 19 0 36 -9 49 -26z"/>
<path d="M4980 305 c0 -104 2 -125 15 -125 12 0 15 17 15 93 0 106 11 127 68
127 22 0 32 5 32 15 0 20 -49 20 -78 -1 -20 -14 -22 -14 -22 0 0 9 -7 16 -15
16 -13 0 -15 -21 -15 -125z"/>
</g>
</svg>
