<?xml version="1.0" standalone="no"?>
<!DOCTYPE svg PUBLIC "-//W3C//DTD SVG 20010904//EN"
 "http://www.w3.org/TR/2001/REC-SVG-20010904/DTD/svg10.dtd">
<svg version="1.0" xmlns="http://www.w3.org/2000/svg"
 width="311.000000pt" height="311.000000pt" viewBox="0 0 311.000000 311.000000"
 preserveAspectRatio="xMidYMid meet">
<metadata>
Created by potrace 1.15, written by Peter Selinger 2001-2017
</metadata>
<g transform="translate(0.000000,311.000000) scale(0.100000,-0.100000)"
fill="#000000" stroke="none">
<path d="M1613 2880 c-105 -64 -193 -226 -193 -359 l0 -44 -45 42 c-46 43 -91
69 -101 59 -3 -3 -9 -34 -14 -69 -9 -61 -2 -143 19 -230 l8 -37 -41 19 c-22
10 -60 19 -82 19 l-41 0 8 -42 c10 -53 31 -112 58 -166 12 -23 18 -42 14 -42
-5 0 -38 15 -74 34 -171 85 -284 218 -335 391 l-17 60 -20 -45 c-32 -70 -35
-191 -7 -282 12 -40 32 -92 45 -114 l22 -42 -31 9 c-38 11 -133 12 -140 1 -12
-20 63 -141 129 -209 l71 -73 -34 0 c-32 0 -105 -31 -116 -49 -10 -16 33 -58
114 -112 44 -29 80 -55 80 -59 0 -4 -16 -20 -35 -34 -19 -15 -51 -51 -70 -79
l-35 -52 37 -7 c21 -4 86 -7 146 -7 59 -1 107 -4 107 -7 0 -3 -13 -23 -29 -43
-16 -20 -47 -73 -70 -119 l-42 -83 38 7 c48 8 196 60 245 85 l36 18 -14 -52
c-8 -29 -17 -104 -20 -167 l-7 -115 33 30 c40 38 94 111 130 177 32 58 36 55
44 -37 3 -33 8 -74 11 -91 6 -28 3 -32 -52 -66 -165 -102 -259 -205 -365 -398
-38 -69 -112 -250 -105 -256 2 -2 25 23 51 56 106 135 262 207 509 236 201 23
375 52 446 74 119 38 255 117 346 202 98 92 147 163 241 348 56 112 79 146
133 201 36 36 90 77 120 92 l53 26 -33 20 c-48 28 -59 39 -59 61 0 25 -53 68
-96 76 -80 15 -181 -31 -236 -109 l-22 -31 -16 55 c-36 121 -75 174 -285 390
-289 296 -361 399 -406 579 -26 101 -22 217 9 318 11 34 19 62 18 62 0 0 -15
-9 -33 -20z m-764 -685 c38 -66 124 -154 198 -202 114 -72 195 -99 493 -158
293 -59 366 -86 464 -175 62 -57 123 -167 133 -238 5 -37 3 -42 -20 -53 -35
-16 -50 -2 -72 64 -22 69 -74 147 -127 189 -62 50 -143 80 -398 148 -124 33
-254 70 -290 82 -191 62 -299 160 -404 366 -27 52 -10 36 23 -23z m1709 -674
c6 -40 -39 -56 -58 -20 -9 15 -8 24 1 35 18 22 53 13 57 -15z"/>
</g>
</svg>
